<svg width="18" height="18" viewBox="0 0 18 18" fill="none" xmlns="http://www.w3.org/2000/svg">
<path d="M16.3333 1H5.66667C5.48986 1 5.32029 1.07024 5.19526 1.19526C5.07024 1.32029 5 1.48986 5 1.66667V5H1.66667C1.48986 5 1.32029 5.07024 1.19526 5.19526C1.07024 5.32029 1 5.48986 1 5.66667V16.3333C1 16.5101 1.07024 16.6797 1.19526 16.8047C1.32029 16.9298 1.48986 17 1.66667 17H12.3333C12.5101 17 12.6797 16.9298 12.8047 16.8047C12.9298 16.6797 13 16.5101 13 16.3333V13H16.3333C16.5101 13 16.6797 12.9298 16.8047 12.8047C16.9298 12.6797 17 12.5101 17 12.3333V1.66667C17 1.48986 16.9298 1.32029 16.8047 1.19526C16.6797 1.07024 16.5101 1 16.3333 1ZM15.6667 11.6667H13V5.66667C13 5.48986 12.9298 5.32029 12.8047 5.19526C12.6797 5.07024 12.5101 5 12.3333 5H6.33333V2.33333H15.6667V11.6667Z" fill="#616D8D"/>
</svg>
